<?xml version="1.0" encoding="utf-8"?>
<!-- Generator: Adobe Illustrator 19.0.0, SVG Export Plug-In . SVG Version: 6.00 Build 0)  -->
<svg version="1.1" id="Layer_1" xmlns="http://www.w3.org/2000/svg" xmlns:xlink="http://www.w3.org/1999/xlink" x="0px" y="0px"
	 viewBox="0 0 500 500" style="enable-background:new 0 0 500 500;" xml:space="preserve">
<style type="text/css">
	.st0{fill:#005596;}
</style>
<g id="XMLID_1_">
	<polygon id="XMLID_3_" class="st0" points="67.5,301.9 85.8,198.6 106.5,198.6 130.8,263.2 156.3,199 175.8,199 194.5,301.5 
		174.2,301.5 163,237.3 138.8,300.3 124,300.3 99.7,236.9 87.4,301.5 	"/>
	<rect id="XMLID_4_" x="200.8" y="198.6" class="st0" width="18.3" height="102.5"/>
	<polygon id="XMLID_5_" class="st0" points="250.2,301.5 250.2,215.7 227.9,215.7 227.9,198.6 290.4,198.6 290.4,215.3 268.5,215.3 
		268.5,301.5 	"/>
	<polygon id="XMLID_6_" class="st0" points="432.1,301.5 373.6,301.5 373.6,198.2 432.5,198.1 432.5,215.7 392.3,215.7 392.3,242 
		432.1,242 432.1,258.4 392.3,258.4 392.3,285.5 432.1,285.5 	"/>
	<path id="XMLID_7_" class="st0" d="M296.4,301.9l0.4-103.7h41.6c17.9,0,29.9,7.7,29.7,28.3c1.6,29.9-24.5,33.5-28.4,31.6l30.7,42.6
		l-21.3,0L320.3,260l-0.4-19.5h24.5c7.9,0,8.9-23.9-0.8-23.9l-28.9-0.8v85.3L296.4,301.9L296.4,301.9z"/>
</g>
</svg>
